<svg width="512" height="512" version="1.1" xmlns="http://www.w3.org/2000/svg" desc="Created with imagetracer.js version 1.2.6" ><path fill="rgb(0,0,0)" stroke="rgb(0,0,0)" stroke-width="1" opacity="0" d="M 0 0 L 84 0 L 84 40 L 52.5 40 Q 51.3 42.3 46.5 41 Q 24.2 47.2 12 63.5 Q 2.9 74.4 0.5 92 L 0 0 Z " /><path fill="rgb(0,0,0)" stroke="rgb(0,0,0)" stroke-width="1" opacity="0" d="M 124 0 L 387.5 0 L 388 0.5 L 388 40 L 124.5 40 L 124 39.5 L 124 0 Z " /><path fill="rgb(0,0,0)" stroke="rgb(0,0,0)" stroke-width="1" opacity="0" d="M 428 0 L 512 0 L 512 91.5 L 511 91.5 L 511 86.5 L 504 69.5 L 488.5 52 Q 478.9 44.6 465.5 41 Q 460.7 42.3 459.5 40 L 428 40 L 428 0 Z " /><path fill="rgb(0,0,0)" stroke="rgb(0,0,0)" stroke-width="1" opacity="0" d="M 56.5 80 L 84 80 L 84 120 L 124 120 L 124 80.5 L 124.5 80 L 388 80 L 388 120 L 428 120 L 428 80 L 455.5 80 L 467 86.5 L 472 96.5 L 472 148 L 40.5 148 L 40 147.5 L 40 96.5 L 46.5 85 L 56.5 80 Z " /><path fill="rgb(0,0,0)" stroke="rgb(0,0,0)" stroke-width="1" opacity="0" d="M 40 188 L 471.5 188 L 472 188.5 L 472 230.5 L 473.5 231 Q 491 242.5 505 257.5 L 512 265.5 L 512 364.5 L 511 364.5 L 511 357.5 L 507 339.5 L 496 312.5 Q 483.2 289.3 463.5 273 Q 443.3 255.7 414.5 247 L 388.5 242 L 365.5 242 L 339.5 247 L 312.5 258 Q 289.3 270.8 273 290.5 Q 255.7 310.7 247 339.5 L 242 365.5 L 242 388.5 L 247 414.5 L 258 441.5 Q 270.8 464.7 290.5 481 Q 304.6 492.9 322.5 501 L 351.5 510 L 365 511.5 L 265.5 512 L 250 497.5 L 235 479.5 L 231 472 L 56.5 472 L 45 465.5 L 40 455.5 L 40 188 Z M 76 230 L 76 270 L 116 270 L 116 230 L 76 230 Z M 156 230 L 156 270 L 196 270 L 196 230 L 156 230 Z M 236 230 L 236 270 L 276 270 L 276 230 L 236 230 Z M 76 310 L 76 350 L 116 350 L 116 310 L 76 310 Z M 156 310 L 156 350 L 196 350 L 196 310 L 156 310 Z M 76 390 L 76 430 L 116 430 L 116 390 L 76 390 Z M 156 390 L 156 430 L 196 430 L 196 390 L 156 390 Z " /><path fill="rgb(0,0,0)" stroke="rgb(0,0,0)" stroke-width="1" opacity="0" d="M 369.5 282 L 392.5 283 L 413.5 289 Q 432.7 297.3 446 311.5 Q 460.4 326.6 468 348.5 L 472 369.5 L 472 384.5 L 471 385.5 L 470 397.5 L 465 413.5 Q 456.7 432.7 442.5 446 Q 427.4 460.4 405.5 468 L 384.5 472 L 369.5 472 L 368.5 471 L 356.5 470 L 340.5 465 Q 321.3 456.7 308 442.5 Q 293.6 427.4 286 405.5 L 282 384.5 L 282 369.5 L 283 368.5 L 284 356.5 L 289 340.5 Q 297.3 321.3 311.5 308 Q 323.8 296.3 340.5 289 L 356.5 284 L 368.5 283 L 369.5 282 Z M 356 310 L 356 397 L 430 397 L 430 357 L 396 357 L 396 310 L 356 310 Z " /><path fill="rgb(0,0,0)" stroke="rgb(0,0,0)" stroke-width="1" opacity="0" d="M 511.5 389 L 512 512 L 389 511.5 Q 420 508.5 441.5 496 Q 464.7 483.2 481 463.5 Q 492.9 449.4 501 431.5 L 510 402.5 L 511.5 389 Z " /><path fill="rgb(0,0,0)" stroke="rgb(0,0,0)" stroke-width="1" opacity="0" d="M 0.5 460 Q 5.1 486.9 23.5 500 Q 34.4 509.1 52 511.5 L 0 512 L 0.5 460 Z " /><path fill="rgb(0,0,0)" stroke="rgb(0,0,0)" stroke-width="1" opacity="0.792156862745098" d="M 52.5 40 L 58 40.5 L 52.5 41 L 52.5 40 Z " /><path fill="rgb(0,0,0)" stroke="rgb(0,0,0)" stroke-width="1" opacity="0.792156862745098" d="M 454.5 40 L 460 40.5 L 454.5 41 L 454.5 40 Z " /><path fill="rgb(0,0,0)" stroke="rgb(0,0,0)" stroke-width="1" opacity="0.792156862745098" d="M 46.5 41 L 49 41.5 L 46.5 42 L 46.5 41 Z " /><path fill="rgb(0,0,0)" stroke="rgb(0,0,0)" stroke-width="1" opacity="0.792156862745098" d="M 463.5 41 L 466 41.5 L 463.5 42 L 463.5 41 Z " /><path fill="rgb(0,0,0)" stroke="rgb(0,0,0)" stroke-width="1" opacity="0.792156862745098" d="M 23.5 52 L 21.5 55 L 23.5 52 Z " /><path fill="rgb(0,0,0)" stroke="rgb(0,0,0)" stroke-width="1" opacity="0.792156862745098" d="M 488.5 52 L 490.5 55 L 488.5 52 Z " /><path fill="rgb(0,0,0)" stroke="rgb(0,0,0)" stroke-width="1" opacity="0.792156862745098" d="M 14.5 61 L 12.5 64 L 14.5 61 Z " /><path fill="rgb(0,0,0)" stroke="rgb(0,0,0)" stroke-width="1" opacity="0.792156862745098" d="M 497.5 61 L 499.5 64 L 497.5 61 Z " /><path fill="rgb(0,0,0)" stroke="rgb(0,0,0)" stroke-width="1" opacity="0.792156862745098" d="M 48.5 83 L 47.5 85 L 48.5 83 Z " /><path fill="rgb(0,0,0)" stroke="rgb(0,0,0)" stroke-width="1" opacity="0.792156862745098" d="M 463.5 83 L 464.5 85 L 463.5 83 Z " /><path fill="rgb(0,0,0)" stroke="rgb(0,0,0)" stroke-width="1" opacity="0.792156862745098" d="M 1.5 86 L 2 88.5 L 1 88.5 L 1.5 86 Z " /><path fill="rgb(0,0,0)" stroke="rgb(0,0,0)" stroke-width="1" opacity="0.792156862745098" d="M 510.5 86 L 511 88.5 L 510 88.5 L 510.5 86 Z " /><path fill="rgb(0,0,0)" stroke="rgb(0,0,0)" stroke-width="1" opacity="0.792156862745098" d="M 44.5 87 L 43.5 89 L 44.5 87 Z " /><path fill="rgb(0,0,0)" stroke="rgb(0,0,0)" stroke-width="1" opacity="0.792156862745098" d="M 467.5 87 L 468.5 89 L 467.5 87 Z " /><path fill="rgb(0,0,0)" stroke="rgb(0,0,0)" stroke-width="1" opacity="0.792156862745098" d="M 0.5 92 L 1 97.5 L 0 97.5 L 0.5 92 Z " /><path fill="rgb(0,0,0)" stroke="rgb(0,0,0)" stroke-width="1" opacity="0.792156862745098" d="M 511.5 92 L 512 97.5 L 511 97.5 L 511.5 92 Z " /><path fill="rgb(0,0,0)" stroke="rgb(0,0,0)" stroke-width="1" opacity="0.792156862745098" d="M 474.5 231 L 475.5 233 L 474.5 231 Z " /><path fill="rgb(0,0,0)" stroke="rgb(0,0,0)" stroke-width="1" opacity="0.792156862745098" d="M 481.5 236 L 482.5 238 L 481.5 236 Z " /><path fill="rgb(0,0,0)" stroke="rgb(0,0,0)" stroke-width="1" opacity="0.792156862745098" d="M 485.5 239 L 487.5 242 L 485.5 239 Z " /><path fill="rgb(0,0,0)" stroke="rgb(0,0,0)" stroke-width="1" opacity="0.792156862745098" d="M 365.5 242 L 375 242.5 L 365.5 243 L 365.5 242 Z " /><path fill="rgb(0,0,0)" stroke="rgb(0,0,0)" stroke-width="1" opacity="0.792156862745098" d="M 379.5 242 L 389 242.5 L 379.5 243 L 379.5 242 Z " /><path fill="rgb(0,0,0)" stroke="rgb(0,0,0)" stroke-width="1" opacity="0.792156862745098" d="M 357.5 243 L 361 243.5 L 357.5 244 L 357.5 243 Z " /><path fill="rgb(0,0,0)" stroke="rgb(0,0,0)" stroke-width="1" opacity="0.792156862745098" d="M 393.5 243 L 397 243.5 L 393.5 244 L 393.5 243 Z " /><path fill="rgb(0,0,0)" stroke="rgb(0,0,0)" stroke-width="1" opacity="0.792156862745098" d="M 351.5 244 L 354 244.5 L 351.5 245 L 351.5 244 Z " /><path fill="rgb(0,0,0)" stroke="rgb(0,0,0)" stroke-width="1" opacity="0.792156862745098" d="M 400.5 244 L 403 244.5 L 400.5 245 L 400.5 244 Z " /><path fill="rgb(0,0,0)" stroke="rgb(0,0,0)" stroke-width="1" opacity="0.792156862745098" d="M 491.5 244 L 496.5 250 L 491.5 244 Z " /><path fill="rgb(0,0,0)" stroke="rgb(0,0,0)" stroke-width="1" opacity="0.792156862745098" d="M 505.5 258 L 510.5 264 L 505.5 258 Z " /><path fill="rgb(0,0,0)" stroke="rgb(0,0,0)" stroke-width="1" opacity="0.792156862745098" d="M 307.5 261 L 306.5 263 L 307.5 261 Z " /><path fill="rgb(0,0,0)" stroke="rgb(0,0,0)" stroke-width="1" opacity="0.792156862745098" d="M 446.5 261 L 447.5 263 L 446.5 261 Z " /><path fill="rgb(0,0,0)" stroke="rgb(0,0,0)" stroke-width="1" opacity="0.792156862745098" d="M 302.5 264 L 301.5 266 L 302.5 264 Z " /><path fill="rgb(0,0,0)" stroke="rgb(0,0,0)" stroke-width="1" opacity="0.792156862745098" d="M 451.5 264 L 452.5 266 L 451.5 264 Z " /><path fill="rgb(0,0,0)" stroke="rgb(0,0,0)" stroke-width="1" opacity="0.792156862745098" d="M 298.5 267 L 297.5 269 L 298.5 267 Z " /><path fill="rgb(0,0,0)" stroke="rgb(0,0,0)" stroke-width="1" opacity="0.792156862745098" d="M 455.5 267 L 456.5 269 L 455.5 267 Z " /><path fill="rgb(0,0,0)" stroke="rgb(0,0,0)" stroke-width="1" opacity="0.792156862745098" d="M 294.5 270 L 293.5 272 L 294.5 270 Z " /><path fill="rgb(0,0,0)" stroke="rgb(0,0,0)" stroke-width="1" opacity="0.792156862745098" d="M 459.5 270 L 460.5 272 L 459.5 270 Z " /><path fill="rgb(0,0,0)" stroke="rgb(0,0,0)" stroke-width="1" opacity="0.792156862745098" d="M 290.5 273 L 285.5 279 L 290.5 273 Z " /><path fill="rgb(0,0,0)" stroke="rgb(0,0,0)" stroke-width="1" opacity="0.792156862745098" d="M 463.5 273 L 468.5 279 L 463.5 273 Z " /><path fill="rgb(0,0,0)" stroke="rgb(0,0,0)" stroke-width="1" opacity="0.792156862745098" d="M 365.5 282 L 369 282.5 L 365.5 283 L 365.5 282 Z " /><path fill="rgb(0,0,0)" stroke="rgb(0,0,0)" stroke-width="1" opacity="0.792156862745098" d="M 385.5 282 L 389 282.5 L 385.5 283 L 385.5 282 Z " /><path fill="rgb(0,0,0)" stroke="rgb(0,0,0)" stroke-width="1" opacity="0.792156862745098" d="M 358.5 283 L 361 283.5 L 358.5 284 L 358.5 283 Z " /><path fill="rgb(0,0,0)" stroke="rgb(0,0,0)" stroke-width="1" opacity="0.792156862745098" d="M 393.5 283 L 396 283.5 L 393.5 284 L 393.5 283 Z " /><path fill="rgb(0,0,0)" stroke="rgb(0,0,0)" stroke-width="1" opacity="0.792156862745098" d="M 278.5 285 L 273.5 291 L 278.5 285 Z " /><path fill="rgb(0,0,0)" stroke="rgb(0,0,0)" stroke-width="1" opacity="0.792156862745098" d="M 475.5 285 L 480.5 291 L 475.5 285 Z " /><path fill="rgb(0,0,0)" stroke="rgb(0,0,0)" stroke-width="1" opacity="0.792156862745098" d="M 271.5 293 L 270.5 295 L 271.5 293 Z " /><path fill="rgb(0,0,0)" stroke="rgb(0,0,0)" stroke-width="1" opacity="0.792156862745098" d="M 482.5 293 L 483.5 295 L 482.5 293 Z " /><path fill="rgb(0,0,0)" stroke="rgb(0,0,0)" stroke-width="1" opacity="0.792156862745098" d="M 329.5 294 L 328.5 296 L 329.5 294 Z " /><path fill="rgb(0,0,0)" stroke="rgb(0,0,0)" stroke-width="1" opacity="0.792156862745098" d="M 424.5 294 L 425.5 296 L 424.5 294 Z " /><path fill="rgb(0,0,0)" stroke="rgb(0,0,0)" stroke-width="1" opacity="0.792156862745098" d="M 268.5 297 L 267.5 299 L 268.5 297 Z " /><path fill="rgb(0,0,0)" stroke="rgb(0,0,0)" stroke-width="1" opacity="0.792156862745098" d="M 324.5 297 L 323.5 299 L 324.5 297 Z " /><path fill="rgb(0,0,0)" stroke="rgb(0,0,0)" stroke-width="1" opacity="0.792156862745098" d="M 429.5 297 L 430.5 299 L 429.5 297 Z " /><path fill="rgb(0,0,0)" stroke="rgb(0,0,0)" stroke-width="1" opacity="0.792156862745098" d="M 485.5 297 L 486.5 299 L 485.5 297 Z " /><path fill="rgb(0,0,0)" stroke="rgb(0,0,0)" stroke-width="1" opacity="0.792156862745098" d="M 320.5 300 L 319.5 302 L 320.5 300 Z " /><path fill="rgb(0,0,0)" stroke="rgb(0,0,0)" stroke-width="1" opacity="0.792156862745098" d="M 433.5 300 L 434.5 302 L 433.5 300 Z " /><path fill="rgb(0,0,0)" stroke="rgb(0,0,0)" stroke-width="1" opacity="0.792156862745098" d="M 265.5 301 L 264.5 303 L 265.5 301 Z " /><path fill="rgb(0,0,0)" stroke="rgb(0,0,0)" stroke-width="1" opacity="0.792156862745098" d="M 488.5 301 L 489.5 303 L 488.5 301 Z " /><path fill="rgb(0,0,0)" stroke="rgb(0,0,0)" stroke-width="1" opacity="0.792156862745098" d="M 316.5 303 L 312.5 308 L 316.5 303 Z " /><path fill="rgb(0,0,0)" stroke="rgb(0,0,0)" stroke-width="1" opacity="0.792156862745098" d="M 437.5 303 L 441.5 308 L 437.5 303 Z " /><path fill="rgb(0,0,0)" stroke="rgb(0,0,0)" stroke-width="1" opacity="0.792156862745098" d="M 262.5 306 L 261.5 308 L 262.5 306 Z " /><path fill="rgb(0,0,0)" stroke="rgb(0,0,0)" stroke-width="1" opacity="0.792156862745098" d="M 491.5 306 L 492.5 308 L 491.5 306 Z " /><path fill="rgb(0,0,0)" stroke="rgb(0,0,0)" stroke-width="1" opacity="0.792156862745098" d="M 307.5 312 L 303.5 317 L 307.5 312 Z " /><path fill="rgb(0,0,0)" stroke="rgb(0,0,0)" stroke-width="1" opacity="0.792156862745098" d="M 446.5 312 L 450.5 317 L 446.5 312 Z " /><path fill="rgb(0,0,0)" stroke="rgb(0,0,0)" stroke-width="1" opacity="0.792156862745098" d="M 301.5 319 L 300.5 321 L 301.5 319 Z " /><path fill="rgb(0,0,0)" stroke="rgb(0,0,0)" stroke-width="1" opacity="0.792156862745098" d="M 452.5 319 L 453.5 321 L 452.5 319 Z " /><path fill="rgb(0,0,0)" stroke="rgb(0,0,0)" stroke-width="1" opacity="0.792156862745098" d="M 298.5 323 L 297.5 325 L 298.5 323 Z " /><path fill="rgb(0,0,0)" stroke="rgb(0,0,0)" stroke-width="1" opacity="0.792156862745098" d="M 455.5 323 L 456.5 325 L 455.5 323 Z " /><path fill="rgb(0,0,0)" stroke="rgb(0,0,0)" stroke-width="1" opacity="0.792156862745098" d="M 295.5 328 L 294.5 330 L 295.5 328 Z " /><path fill="rgb(0,0,0)" stroke="rgb(0,0,0)" stroke-width="1" opacity="0.792156862745098" d="M 458.5 328 L 459.5 330 L 458.5 328 Z " /><path fill="rgb(0,0,0)" stroke="rgb(0,0,0)" stroke-width="1" opacity="0.792156862745098" d="M 244.5 351 L 245 353.5 L 244 353.5 L 244.5 351 Z " /><path fill="rgb(0,0,0)" stroke="rgb(0,0,0)" stroke-width="1" opacity="0.792156862745098" d="M 509.5 351 L 510 353.5 L 509 353.5 L 509.5 351 Z " /><path fill="rgb(0,0,0)" stroke="rgb(0,0,0)" stroke-width="1" opacity="0.792156862745098" d="M 243.5 357 L 244 360.5 L 243 360.5 L 243.5 357 Z " /><path fill="rgb(0,0,0)" stroke="rgb(0,0,0)" stroke-width="1" opacity="0.792156862745098" d="M 510.5 357 L 511 360.5 L 510 360.5 L 510.5 357 Z " /><path fill="rgb(0,0,0)" stroke="rgb(0,0,0)" stroke-width="1" opacity="0.792156862745098" d="M 283.5 358 L 284 360.5 L 283 360.5 L 283.5 358 Z " /><path fill="rgb(0,0,0)" stroke="rgb(0,0,0)" stroke-width="1" opacity="0.792156862745098" d="M 470.5 358 L 471 360.5 L 470 360.5 L 470.5 358 Z " /><path fill="rgb(0,0,0)" stroke="rgb(0,0,0)" stroke-width="1" opacity="0.792156862745098" d="M 242.5 365 L 243 374.5 L 242 374.5 L 242.5 365 Z " /><path fill="rgb(0,0,0)" stroke="rgb(0,0,0)" stroke-width="1" opacity="0.792156862745098" d="M 282.5 365 L 283 368.5 L 282 368.5 L 282.5 365 Z " /><path fill="rgb(0,0,0)" stroke="rgb(0,0,0)" stroke-width="1" opacity="0.792156862745098" d="M 471.5 365 L 472 368.5 L 471 368.5 L 471.5 365 Z " /><path fill="rgb(0,0,0)" stroke="rgb(0,0,0)" stroke-width="1" opacity="0.792156862745098" d="M 511.5 365 L 512 374.5 L 511 374.5 L 511.5 365 Z " /><path fill="rgb(0,0,0)" stroke="rgb(0,0,0)" stroke-width="1" opacity="0.792156862745098" d="M 242.5 379 L 243 388.5 L 242 388.5 L 242.5 379 Z " /><path fill="rgb(0,0,0)" stroke="rgb(0,0,0)" stroke-width="1" opacity="0.792156862745098" d="M 511.5 379 L 512 388.5 L 511 388.5 L 511.5 379 Z " /><path fill="rgb(0,0,0)" stroke="rgb(0,0,0)" stroke-width="1" opacity="0.792156862745098" d="M 282.5 385 L 283 388.5 L 282 388.5 L 282.5 385 Z " /><path fill="rgb(0,0,0)" stroke="rgb(0,0,0)" stroke-width="1" opacity="0.792156862745098" d="M 471.5 385 L 472 388.5 L 471 388.5 L 471.5 385 Z " /><path fill="rgb(0,0,0)" stroke="rgb(0,0,0)" stroke-width="1" opacity="0.792156862745098" d="M 243.5 393 L 244 396.5 L 243 396.5 L 243.5 393 Z " /><path fill="rgb(0,0,0)" stroke="rgb(0,0,0)" stroke-width="1" opacity="0.792156862745098" d="M 283.5 393 L 284 395.5 L 283 395.5 L 283.5 393 Z " /><path fill="rgb(0,0,0)" stroke="rgb(0,0,0)" stroke-width="1" opacity="0.792156862745098" d="M 470.5 393 L 471 395.5 L 470 395.5 L 470.5 393 Z " /><path fill="rgb(0,0,0)" stroke="rgb(0,0,0)" stroke-width="1" opacity="0.792156862745098" d="M 510.5 393 L 511 396.5 L 510 396.5 L 510.5 393 Z " /><path fill="rgb(0,0,0)" stroke="rgb(0,0,0)" stroke-width="1" opacity="0.792156862745098" d="M 244.5 400 L 245 402.5 L 244 402.5 L 244.5 400 Z " /><path fill="rgb(0,0,0)" stroke="rgb(0,0,0)" stroke-width="1" opacity="0.792156862745098" d="M 509.5 400 L 510 402.5 L 509 402.5 L 509.5 400 Z " /><path fill="rgb(0,0,0)" stroke="rgb(0,0,0)" stroke-width="1" opacity="0.792156862745098" d="M 294.5 424 L 295.5 426 L 294.5 424 Z " /><path fill="rgb(0,0,0)" stroke="rgb(0,0,0)" stroke-width="1" opacity="0.792156862745098" d="M 459.5 424 L 458.5 426 L 459.5 424 Z " /><path fill="rgb(0,0,0)" stroke="rgb(0,0,0)" stroke-width="1" opacity="0.792156862745098" d="M 297.5 429 L 298.5 431 L 297.5 429 Z " /><path fill="rgb(0,0,0)" stroke="rgb(0,0,0)" stroke-width="1" opacity="0.792156862745098" d="M 456.5 429 L 455.5 431 L 456.5 429 Z " /><path fill="rgb(0,0,0)" stroke="rgb(0,0,0)" stroke-width="1" opacity="0.792156862745098" d="M 300.5 433 L 301.5 435 L 300.5 433 Z " /><path fill="rgb(0,0,0)" stroke="rgb(0,0,0)" stroke-width="1" opacity="0.792156862745098" d="M 453.5 433 L 452.5 435 L 453.5 433 Z " /><path fill="rgb(0,0,0)" stroke="rgb(0,0,0)" stroke-width="1" opacity="0.792156862745098" d="M 303.5 437 L 307.5 442 L 303.5 437 Z " /><path fill="rgb(0,0,0)" stroke="rgb(0,0,0)" stroke-width="1" opacity="0.792156862745098" d="M 450.5 437 L 446.5 442 L 450.5 437 Z " /><path fill="rgb(0,0,0)" stroke="rgb(0,0,0)" stroke-width="1" opacity="0.792156862745098" d="M 261.5 446 L 262.5 448 L 261.5 446 Z " /><path fill="rgb(0,0,0)" stroke="rgb(0,0,0)" stroke-width="1" opacity="0.792156862745098" d="M 312.5 446 L 316.5 451 L 312.5 446 Z " /><path fill="rgb(0,0,0)" stroke="rgb(0,0,0)" stroke-width="1" opacity="0.792156862745098" d="M 441.5 446 L 437.5 451 L 441.5 446 Z " /><path fill="rgb(0,0,0)" stroke="rgb(0,0,0)" stroke-width="1" opacity="0.792156862745098" d="M 492.5 446 L 491.5 448 L 492.5 446 Z " /><path fill="rgb(0,0,0)" stroke="rgb(0,0,0)" stroke-width="1" opacity="0.792156862745098" d="M 264.5 451 L 265.5 453 L 264.5 451 Z " /><path fill="rgb(0,0,0)" stroke="rgb(0,0,0)" stroke-width="1" opacity="0.792156862745098" d="M 489.5 451 L 488.5 453 L 489.5 451 Z " /><path fill="rgb(0,0,0)" stroke="rgb(0,0,0)" stroke-width="1" opacity="0.792156862745098" d="M 319.5 452 L 320.5 454 L 319.5 452 Z " /><path fill="rgb(0,0,0)" stroke="rgb(0,0,0)" stroke-width="1" opacity="0.792156862745098" d="M 434.5 452 L 433.5 454 L 434.5 452 Z " /><path fill="rgb(0,0,0)" stroke="rgb(0,0,0)" stroke-width="1" opacity="0.792156862745098" d="M 0.5 454 L 1 459.5 L 0 459.5 L 0.5 454 Z " /><path fill="rgb(0,0,0)" stroke="rgb(0,0,0)" stroke-width="1" opacity="0.792156862745098" d="M 267.5 455 L 268.5 457 L 267.5 455 Z " /><path fill="rgb(0,0,0)" stroke="rgb(0,0,0)" stroke-width="1" opacity="0.792156862745098" d="M 323.5 455 L 324.5 457 L 323.5 455 Z " /><path fill="rgb(0,0,0)" stroke="rgb(0,0,0)" stroke-width="1" opacity="0.792156862745098" d="M 430.5 455 L 429.5 457 L 430.5 455 Z " /><path fill="rgb(0,0,0)" stroke="rgb(0,0,0)" stroke-width="1" opacity="0.792156862745098" d="M 486.5 455 L 485.5 457 L 486.5 455 Z " /><path fill="rgb(0,0,0)" stroke="rgb(0,0,0)" stroke-width="1" opacity="0.792156862745098" d="M 328.5 458 L 329.5 460 L 328.5 458 Z " /><path fill="rgb(0,0,0)" stroke="rgb(0,0,0)" stroke-width="1" opacity="0.792156862745098" d="M 425.5 458 L 424.5 460 L 425.5 458 Z " /><path fill="rgb(0,0,0)" stroke="rgb(0,0,0)" stroke-width="1" opacity="0.792156862745098" d="M 270.5 459 L 271.5 461 L 270.5 459 Z " /><path fill="rgb(0,0,0)" stroke="rgb(0,0,0)" stroke-width="1" opacity="0.792156862745098" d="M 483.5 459 L 482.5 461 L 483.5 459 Z " /><path fill="rgb(0,0,0)" stroke="rgb(0,0,0)" stroke-width="1" opacity="0.792156862745098" d="M 1.5 463 L 2 465.5 L 1 465.5 L 1.5 463 Z " /><path fill="rgb(0,0,0)" stroke="rgb(0,0,0)" stroke-width="1" opacity="0.792156862745098" d="M 43.5 463 L 44.5 465 L 43.5 463 Z " /><path fill="rgb(0,0,0)" stroke="rgb(0,0,0)" stroke-width="1" opacity="0.792156862745098" d="M 273.5 463 L 278.5 469 L 273.5 463 Z " /><path fill="rgb(0,0,0)" stroke="rgb(0,0,0)" stroke-width="1" opacity="0.792156862745098" d="M 480.5 463 L 475.5 469 L 480.5 463 Z " /><path fill="rgb(0,0,0)" stroke="rgb(0,0,0)" stroke-width="1" opacity="0.792156862745098" d="M 47.5 467 L 48.5 469 L 47.5 467 Z " /><path fill="rgb(0,0,0)" stroke="rgb(0,0,0)" stroke-width="1" opacity="0.792156862745098" d="M 358.5 470 L 361 470.5 L 358.5 471 L 358.5 470 Z " /><path fill="rgb(0,0,0)" stroke="rgb(0,0,0)" stroke-width="1" opacity="0.792156862745098" d="M 393.5 470 L 396 470.5 L 393.5 471 L 393.5 470 Z " /><path fill="rgb(0,0,0)" stroke="rgb(0,0,0)" stroke-width="1" opacity="0.792156862745098" d="M 365.5 471 L 369 471.5 L 365.5 472 L 365.5 471 Z " /><path fill="rgb(0,0,0)" stroke="rgb(0,0,0)" stroke-width="1" opacity="0.792156862745098" d="M 385.5 471 L 389 471.5 L 385.5 472 L 385.5 471 Z " /><path fill="rgb(0,0,0)" stroke="rgb(0,0,0)" stroke-width="1" opacity="0.792156862745098" d="M 231.5 474 L 232.5 476 L 231.5 474 Z " /><path fill="rgb(0,0,0)" stroke="rgb(0,0,0)" stroke-width="1" opacity="0.792156862745098" d="M 285.5 475 L 290.5 481 L 285.5 475 Z " /><path fill="rgb(0,0,0)" stroke="rgb(0,0,0)" stroke-width="1" opacity="0.792156862745098" d="M 468.5 475 L 463.5 481 L 468.5 475 Z " /><path fill="rgb(0,0,0)" stroke="rgb(0,0,0)" stroke-width="1" opacity="0.792156862745098" d="M 236.5 481 L 237.5 483 L 236.5 481 Z " /><path fill="rgb(0,0,0)" stroke="rgb(0,0,0)" stroke-width="1" opacity="0.792156862745098" d="M 293.5 482 L 294.5 484 L 293.5 482 Z " /><path fill="rgb(0,0,0)" stroke="rgb(0,0,0)" stroke-width="1" opacity="0.792156862745098" d="M 460.5 482 L 459.5 484 L 460.5 482 Z " /><path fill="rgb(0,0,0)" stroke="rgb(0,0,0)" stroke-width="1" opacity="0.792156862745098" d="M 239.5 485 L 241.5 488 L 239.5 485 Z " /><path fill="rgb(0,0,0)" stroke="rgb(0,0,0)" stroke-width="1" opacity="0.792156862745098" d="M 297.5 485 L 298.5 487 L 297.5 485 Z " /><path fill="rgb(0,0,0)" stroke="rgb(0,0,0)" stroke-width="1" opacity="0.792156862745098" d="M 456.5 485 L 455.5 487 L 456.5 485 Z " /><path fill="rgb(0,0,0)" stroke="rgb(0,0,0)" stroke-width="1" opacity="0.792156862745098" d="M 12.5 488 L 14.5 491 L 12.5 488 Z " /><path fill="rgb(0,0,0)" stroke="rgb(0,0,0)" stroke-width="1" opacity="0.792156862745098" d="M 301.5 488 L 302.5 490 L 301.5 488 Z " /><path fill="rgb(0,0,0)" stroke="rgb(0,0,0)" stroke-width="1" opacity="0.792156862745098" d="M 452.5 488 L 451.5 490 L 452.5 488 Z " /><path fill="rgb(0,0,0)" stroke="rgb(0,0,0)" stroke-width="1" opacity="0.792156862745098" d="M 244.5 491 L 249.5 497 L 244.5 491 Z " /><path fill="rgb(0,0,0)" stroke="rgb(0,0,0)" stroke-width="1" opacity="0.792156862745098" d="M 306.5 491 L 307.5 493 L 306.5 491 Z " /><path fill="rgb(0,0,0)" stroke="rgb(0,0,0)" stroke-width="1" opacity="0.792156862745098" d="M 447.5 491 L 446.5 493 L 447.5 491 Z " /><path fill="rgb(0,0,0)" stroke="rgb(0,0,0)" stroke-width="1" opacity="0.792156862745098" d="M 21.5 497 L 23.5 500 L 21.5 497 Z " /><path fill="rgb(0,0,0)" stroke="rgb(0,0,0)" stroke-width="1" opacity="0.792156862745098" d="M 258.5 505 L 263.5 511 L 258.5 505 Z " /><path fill="rgb(0,0,0)" stroke="rgb(0,0,0)" stroke-width="1" opacity="0.792156862745098" d="M 351.5 509 L 354 509.5 L 351.5 510 L 351.5 509 Z " /><path fill="rgb(0,0,0)" stroke="rgb(0,0,0)" stroke-width="1" opacity="0.792156862745098" d="M 400.5 509 L 403 509.5 L 400.5 510 L 400.5 509 Z " /><path fill="rgb(0,0,0)" stroke="rgb(0,0,0)" stroke-width="1" opacity="0.792156862745098" d="M 46.5 510 L 49 510.5 L 46.5 511 L 46.5 510 Z " /><path fill="rgb(0,0,0)" stroke="rgb(0,0,0)" stroke-width="1" opacity="0.792156862745098" d="M 357.5 510 L 361 510.5 L 357.5 511 L 357.5 510 Z " /><path fill="rgb(0,0,0)" stroke="rgb(0,0,0)" stroke-width="1" opacity="0.792156862745098" d="M 393.5 510 L 397 510.5 L 393.5 511 L 393.5 510 Z " /><path fill="rgb(0,0,0)" stroke="rgb(0,0,0)" stroke-width="1" opacity="0.792156862745098" d="M 52.5 511 L 58 511.5 L 52.5 512 L 52.5 511 Z " /><path fill="rgb(0,0,0)" stroke="rgb(0,0,0)" stroke-width="1" opacity="0.792156862745098" d="M 365.5 511 L 375 511.5 L 365.5 512 L 365.5 511 Z " /><path fill="rgb(0,0,0)" stroke="rgb(0,0,0)" stroke-width="1" opacity="0.792156862745098" d="M 379.5 511 L 389 511.5 L 379.5 512 L 379.5 511 Z " /><path fill="rgb(0,0,0)" stroke="rgb(0,0,0)" stroke-width="1" opacity="1" d="M 84 0 L 124 0 L 124 39.5 L 124.5 40 L 388 40 L 388 0 L 428 0 L 428 40 L 453.5 40 L 473.5 44 Q 487.8 49.8 497 60.5 L 508 78.5 L 512 98.5 L 512 264.5 L 511 264.5 L 491.5 244 L 472 229.5 L 472 188.5 L 471.5 188 L 40 188 L 40 457.5 Q 42.6 464.9 48.5 469 L 54.5 472 L 229.5 472 L 231 473.5 Q 244.4 495.1 263.5 511 L 265 511.5 L 58.5 512 L 38.5 508 Q 24.3 502.3 15 491.5 L 4 473.5 L 0 453.5 L 0 98.5 L 4 78.5 Q 9.8 64.3 20.5 55 Q 30.2 46.2 44.5 42 L 57.5 41 L 58.5 40 L 84 40 L 84 0 Z M 55 80 L 49 83 Q 43 87 40 95 L 40 148 L 41 148 L 472 148 L 472 95 L 469 89 Q 465 83 458 80 L 428 80 L 428 120 L 388 120 L 388 80 L 125 80 L 124 81 L 124 120 L 84 120 L 84 80 L 55 80 Z " /><path fill="rgb(0,0,0)" stroke="rgb(0,0,0)" stroke-width="1" opacity="1" d="M 76 230 L 116 230 L 116 270 L 76 270 L 76 230 Z " /><path fill="rgb(0,0,0)" stroke="rgb(0,0,0)" stroke-width="1" opacity="1" d="M 156 230 L 196 230 L 196 270 L 156 270 L 156 230 Z " /><path fill="rgb(0,0,0)" stroke="rgb(0,0,0)" stroke-width="1" opacity="1" d="M 236 230 L 276 230 L 276 270 L 236 270 L 236 230 Z " /><path fill="rgb(0,0,0)" stroke="rgb(0,0,0)" stroke-width="1" opacity="1" d="M 375.5 242 L 405.5 245 L 432.5 254 Q 457.4 265.6 475 284.5 Q 493.9 303.6 504 331.5 L 509 348.5 L 512 378.5 L 511 379.5 L 511 392.5 L 510 393.5 L 509 405.5 L 500 432.5 Q 488.4 457.4 469.5 475 Q 450.4 493.9 422.5 504 L 405.5 509 L 375.5 512 L 374.5 511 L 361.5 511 L 360.5 510 L 348.5 509 L 321.5 500 Q 296.6 488.4 279 469.5 Q 260.1 450.4 250 422.5 L 245 405.5 L 242 375.5 L 243 374.5 L 243 361.5 L 244 360.5 L 245 348.5 L 254 321.5 Q 265.6 296.6 284.5 279 Q 300.4 263.9 321.5 254 L 348.5 245 L 360.5 244 L 361.5 243 L 374.5 243 L 375.5 242 Z M 366 282 L 351 285 L 340 289 L 317 303 Q 289 324 282 366 L 282 389 L 285 404 Q 291 423 303 438 Q 324 465 366 472 L 389 472 L 404 469 Q 423 463 438 451 Q 465 430 472 389 L 472 366 L 469 351 Q 463 331 451 317 Q 437 299 415 289 L 404 285 L 389 282 L 366 282 Z " /><path fill="rgb(0,0,0)" stroke="rgb(0,0,0)" stroke-width="1" opacity="1" d="M 76 310 L 116 310 L 116 350 L 76 350 L 76 310 Z " /><path fill="rgb(0,0,0)" stroke="rgb(0,0,0)" stroke-width="1" opacity="1" d="M 156 310 L 196 310 L 196 350 L 156 350 L 156 310 Z " /><path fill="rgb(0,0,0)" stroke="rgb(0,0,0)" stroke-width="1" opacity="1" d="M 356 310 L 396 310 L 396 357 L 430 357 L 430 397 L 356 397 L 356 310 Z " /><path fill="rgb(0,0,0)" stroke="rgb(0,0,0)" stroke-width="1" opacity="1" d="M 76 390 L 116 390 L 116 430 L 76 430 L 76 390 Z " /><path fill="rgb(0,0,0)" stroke="rgb(0,0,0)" stroke-width="1" opacity="1" d="M 156 390 L 196 390 L 196 430 L 156 430 L 156 390 Z " /></svg>